<mxfile host="app.diagrams.net" modified="2023-12-26T17:53:13.099Z" agent="Mozilla/5.0 (Windows NT 10.0; Win64; x64) AppleWebKit/537.36 (KHTML, like Gecko) Chrome/120.0.0.0 Safari/537.36" etag="p6Yp09DkNVjEMqNYwtR6" version="22.1.11" type="github">
  <diagram name="Página-1" id="UQG1X8vT8UGHyxXbntRb">
    <mxGraphModel dx="2261" dy="746" grid="1" gridSize="10" guides="1" tooltips="1" connect="1" arrows="1" fold="1" page="1" pageScale="1" pageWidth="827" pageHeight="1169" math="0" shadow="0">
      <root>
        <mxCell id="0" />
        <mxCell id="1" parent="0" />
        <mxCell id="Y62-38P4vx7CKXWB9FfQ-3" style="edgeStyle=orthogonalEdgeStyle;rounded=0;orthogonalLoop=1;jettySize=auto;html=1;" edge="1" parent="1" source="Y62-38P4vx7CKXWB9FfQ-1" target="Y62-38P4vx7CKXWB9FfQ-2">
          <mxGeometry relative="1" as="geometry" />
        </mxCell>
        <mxCell id="Y62-38P4vx7CKXWB9FfQ-1" value="Actor" style="shape=umlActor;verticalLabelPosition=bottom;verticalAlign=top;html=1;outlineConnect=0;" vertex="1" parent="1">
          <mxGeometry x="50" y="430" width="30" height="60" as="geometry" />
        </mxCell>
        <mxCell id="Y62-38P4vx7CKXWB9FfQ-10" style="edgeStyle=orthogonalEdgeStyle;rounded=0;orthogonalLoop=1;jettySize=auto;html=1;entryX=0.5;entryY=1;entryDx=0;entryDy=0;" edge="1" parent="1" source="Y62-38P4vx7CKXWB9FfQ-2" target="Y62-38P4vx7CKXWB9FfQ-7">
          <mxGeometry relative="1" as="geometry" />
        </mxCell>
        <mxCell id="Y62-38P4vx7CKXWB9FfQ-2" value="Wanna&lt;br&gt;Rotate PDF" style="rounded=0;whiteSpace=wrap;html=1;" vertex="1" parent="1">
          <mxGeometry x="160" y="430" width="120" height="60" as="geometry" />
        </mxCell>
        <mxCell id="Y62-38P4vx7CKXWB9FfQ-12" style="edgeStyle=orthogonalEdgeStyle;rounded=0;orthogonalLoop=1;jettySize=auto;html=1;entryX=0;entryY=0.5;entryDx=0;entryDy=0;" edge="1" parent="1" source="Y62-38P4vx7CKXWB9FfQ-7" target="Y62-38P4vx7CKXWB9FfQ-11">
          <mxGeometry relative="1" as="geometry" />
        </mxCell>
        <mxCell id="Y62-38P4vx7CKXWB9FfQ-16" value="" style="edgeStyle=orthogonalEdgeStyle;rounded=0;orthogonalLoop=1;jettySize=auto;html=1;" edge="1" parent="1" source="Y62-38P4vx7CKXWB9FfQ-7" target="Y62-38P4vx7CKXWB9FfQ-15">
          <mxGeometry relative="1" as="geometry" />
        </mxCell>
        <mxCell id="Y62-38P4vx7CKXWB9FfQ-7" value="Send PDF file" style="shape=parallelogram;perimeter=parallelogramPerimeter;whiteSpace=wrap;html=1;fixedSize=1;" vertex="1" parent="1">
          <mxGeometry x="147" y="230" width="146" height="70" as="geometry" />
        </mxCell>
        <mxCell id="Y62-38P4vx7CKXWB9FfQ-14" value="" style="edgeStyle=orthogonalEdgeStyle;rounded=0;orthogonalLoop=1;jettySize=auto;html=1;" edge="1" parent="1" source="Y62-38P4vx7CKXWB9FfQ-11" target="Y62-38P4vx7CKXWB9FfQ-13">
          <mxGeometry relative="1" as="geometry" />
        </mxCell>
        <mxCell id="Y62-38P4vx7CKXWB9FfQ-11" value="BD&lt;br&gt;I/O" style="rhombus;whiteSpace=wrap;html=1;" vertex="1" parent="1">
          <mxGeometry x="390" y="225" width="80" height="80" as="geometry" />
        </mxCell>
        <mxCell id="Y62-38P4vx7CKXWB9FfQ-20" style="edgeStyle=orthogonalEdgeStyle;rounded=0;orthogonalLoop=1;jettySize=auto;html=1;entryX=0.5;entryY=0;entryDx=0;entryDy=0;" edge="1" parent="1" source="Y62-38P4vx7CKXWB9FfQ-13" target="Y62-38P4vx7CKXWB9FfQ-19">
          <mxGeometry relative="1" as="geometry" />
        </mxCell>
        <mxCell id="Y62-38P4vx7CKXWB9FfQ-13" value="BD" style="whiteSpace=wrap;html=1;" vertex="1" parent="1">
          <mxGeometry x="560" y="235" width="120" height="60" as="geometry" />
        </mxCell>
        <mxCell id="Y62-38P4vx7CKXWB9FfQ-15" value="max&lt;br&gt;size?" style="ellipse;shape=cloud;whiteSpace=wrap;html=1;" vertex="1" parent="1">
          <mxGeometry x="160" y="60" width="120" height="80" as="geometry" />
        </mxCell>
        <mxCell id="Y62-38P4vx7CKXWB9FfQ-17" value="check type" style="ellipse;shape=cloud;whiteSpace=wrap;html=1;" vertex="1" parent="1">
          <mxGeometry x="-70" y="225" width="120" height="80" as="geometry" />
        </mxCell>
        <mxCell id="Y62-38P4vx7CKXWB9FfQ-18" style="edgeStyle=orthogonalEdgeStyle;rounded=0;orthogonalLoop=1;jettySize=auto;html=1;entryX=0.95;entryY=0.5;entryDx=0;entryDy=0;entryPerimeter=0;" edge="1" parent="1" source="Y62-38P4vx7CKXWB9FfQ-7" target="Y62-38P4vx7CKXWB9FfQ-17">
          <mxGeometry relative="1" as="geometry" />
        </mxCell>
        <mxCell id="Y62-38P4vx7CKXWB9FfQ-19" value="Exibir páginas do PDF" style="shape=document;whiteSpace=wrap;html=1;boundedLbl=1;" vertex="1" parent="1">
          <mxGeometry x="560" y="420" width="120" height="80" as="geometry" />
        </mxCell>
      </root>
    </mxGraphModel>
  </diagram>
</mxfile>
